<svg xmlns="http://www.w3.org/2000/svg" width="295" height="100" viewBox="0 0 295 100">
  <metadata><?xpacket begin="﻿" id="W5M0MpCehiHzreSzNTczkc9d"?>
<x:xmpmeta xmlns:x="adobe:ns:meta/" x:xmptk="Adobe XMP Core 5.6-c140 79.160451, 2017/05/06-01:08:21        ">
   <rdf:RDF xmlns:rdf="http://www.w3.org/1999/02/22-rdf-syntax-ns#">
      <rdf:Description rdf:about=""/>
   </rdf:RDF>
</x:xmpmeta>
                                                                                                    
                                                                                                    
                                                                                                    
                                                                                                    
                                                                                                    
                                                                                                    
                                                                                                    
                                                                                                    
                                                                                                    
                                                                                                    
                                                                                                    
                                                                                                    
                                                                                                    
                                                                                                    
                                                                                                    
                                                                                                    
                                                                                                    
                                                                                                    
                                                                                                    
                                                                                                    
                           
<?xpacket end="w"?></metadata>
<defs>
    <style>
      .cls-1 {
        fill: #f0dc53;
      }

      .cls-1, .cls-2, .cls-3 {
        fill-rule: evenodd;
      }

      .cls-2 {
        fill: #7999c1;
      }

      .cls-3 {
        fill: #c7c7c7;
      }
    </style>
  </defs>
  <g id="Artboard_1" data-name="Artboard 1">
    <path id="Graph_" data-name="Graph " class="cls-1" d="M105.14,48.158H92.2v4.5h7.031v6.68Q97.312,61.4,92.765,61.4a7.692,7.692,0,0,1-6.48-3.056q-2.332-3.056-2.332-8.582V47.14q0.07-5.549,2.145-8.418a7.006,7.006,0,0,1,6.059-2.868q6.164,0,7.148,6.164h5.812a12.172,12.172,0,0,0-4.031-8.121q-3.352-2.824-9.047-2.824-6.633,0-10.336,4.348T78,47.5v2.672a19.474,19.474,0,0,0,1.863,8.449,12.958,12.958,0,0,0,5.1,5.566,14.685,14.685,0,0,0,7.594,1.945,20.946,20.946,0,0,0,7.453-1.242,11.343,11.343,0,0,0,5.133-3.656V48.158Zm19.265-7.992a5.33,5.33,0,0,0-2.015-.328,6.417,6.417,0,0,0-5.719,3.3l-0.141-2.836h-5.437V65.666h5.695V48.322q1.359-3,5.274-3a14.1,14.1,0,0,1,2.32.188Zm23.836,25.5v-0.4a12.971,12.971,0,0,1-.961-5.461V48.369a7.981,7.981,0,0,0-2.718-6.293,10.644,10.644,0,0,0-7.1-2.238,13.209,13.209,0,0,0-5.308,1.031,9.217,9.217,0,0,0-3.762,2.848,6.321,6.321,0,0,0-1.383,3.9H132.7a3.01,3.01,0,0,1,1.243-2.473,5.016,5.016,0,0,1,3.187-.973,4.369,4.369,0,0,1,3.352,1.184,4.443,4.443,0,0,1,1.1,3.152v1.664h-3.492q-5.6,0-8.613,2.168a7.2,7.2,0,0,0-3.012,6.223,6.974,6.974,0,0,0,2.414,5.391,9.581,9.581,0,0,0,12.891-.656,8.77,8.77,0,0,0,.656,2.367h5.812Zm-14.988-5.074a3.33,3.33,0,0,1-1.09-2.613,3.568,3.568,0,0,1,1.594-3.117,8.394,8.394,0,0,1,4.758-1.1h3.07v4.781a5.479,5.479,0,0,1-2.238,2.2,6.479,6.479,0,0,1-3.176.82A4.22,4.22,0,0,1,133.253,60.591Zm42.2-7.7q0-6.14-2.636-9.6a8.646,8.646,0,0,0-7.278-3.457,8.365,8.365,0,0,0-6.82,3.047l-0.234-2.578h-5.25V75.416h5.695V63.392a9.281,9.281,0,0,0,13.851-.762q2.673-3.5,2.672-9.387V52.892Zm-7.207,6.5a4.907,4.907,0,0,1-4.254,2.191,5.289,5.289,0,0,1-5.062-2.953V47.384a5.24,5.24,0,0,1,5.016-2.883,4.915,4.915,0,0,1,4.324,2.227,10.576,10.576,0,0,1,1.511,6.023Q169.78,57.2,168.245,59.4Zm17.637-29.73h-5.695v36h5.695V47.548a5.486,5.486,0,0,1,5.109-3.047,4.647,4.647,0,0,1,3.34,1.09,5.007,5.007,0,0,1,1.137,3.715V65.666h5.7V49.1q-0.117-9.258-8.226-9.258a8.914,8.914,0,0,0-7.055,3.234V29.666Z" transform="translate(-63)"/>
    <path id="Share_" data-name="Share " class="cls-2" d="M239.261,60.193a7.311,7.311,0,0,1-4.652,1.254,8.415,8.415,0,0,1-5.508-1.594,5.517,5.517,0,0,1-1.922-4.5h-5.93a9.428,9.428,0,0,0,1.723,5.625,11.429,11.429,0,0,0,4.828,3.785,16.67,16.67,0,0,0,6.809,1.371q5.6,0,8.871-2.52a8.122,8.122,0,0,0,3.269-6.785,9.035,9.035,0,0,0-1.125-4.582,10.182,10.182,0,0,0-3.539-3.469,26.305,26.305,0,0,0-6.4-2.7,19.958,19.958,0,0,1-5.719-2.437,3.741,3.741,0,0,1-1.734-3.129,4.137,4.137,0,0,1,1.6-3.469,7.224,7.224,0,0,1,4.512-1.242,6.918,6.918,0,0,1,4.793,1.512A5.348,5.348,0,0,1,240.82,41.5h5.906a9.592,9.592,0,0,0-1.594-5.379,10.426,10.426,0,0,0-4.383-3.738,14.745,14.745,0,0,0-6.351-1.312,13.612,13.612,0,0,0-8.731,2.672,8.315,8.315,0,0,0-3.363,6.8q0,4.711,4.664,7.641a27.542,27.542,0,0,0,6.562,2.766,19.061,19.061,0,0,1,5.708,2.461,4.123,4.123,0,0,1,1.582,3.469A4.046,4.046,0,0,1,239.261,60.193Zm17.754-30.527H251.32v36h5.695V47.548a5.486,5.486,0,0,1,5.109-3.047,4.647,4.647,0,0,1,3.34,1.09,5.007,5.007,0,0,1,1.137,3.715V65.666H272.3V49.1q-0.117-9.258-8.226-9.258a8.914,8.914,0,0,0-7.055,3.234V29.666Zm42,36v-0.4a12.956,12.956,0,0,1-.961-5.461V48.369a7.982,7.982,0,0,0-2.719-6.293,10.643,10.643,0,0,0-7.1-2.238,13.214,13.214,0,0,0-5.309,1.031,9.217,9.217,0,0,0-3.762,2.848,6.321,6.321,0,0,0-1.383,3.9h5.7a3.011,3.011,0,0,1,1.242-2.473,5.016,5.016,0,0,1,3.187-.973,4.369,4.369,0,0,1,3.352,1.184,4.444,4.444,0,0,1,1.1,3.152v1.664h-3.493q-5.6,0-8.613,2.168a7.2,7.2,0,0,0-3.012,6.223,6.974,6.974,0,0,0,2.414,5.391,9.581,9.581,0,0,0,12.891-.656,8.808,8.808,0,0,0,.656,2.367h5.813Zm-14.988-5.074a3.326,3.326,0,0,1-1.09-2.613,3.569,3.569,0,0,1,1.593-3.117,8.4,8.4,0,0,1,4.758-1.1h3.071v4.781a5.488,5.488,0,0,1-2.239,2.2,6.473,6.473,0,0,1-3.175.82A4.218,4.218,0,0,1,284.027,60.591ZM317.32,40.166a5.339,5.339,0,0,0-2.016-.328,6.417,6.417,0,0,0-5.719,3.3l-0.14-2.836h-5.438V65.666H309.7V48.322q1.359-3,5.274-3a14.1,14.1,0,0,1,2.32.188ZM337.769,64.88a10.254,10.254,0,0,0,4.066-3.527l-3.07-2.93a7.713,7.713,0,0,1-6.375,3.164,6.3,6.3,0,0,1-4.629-1.828,7.614,7.614,0,0,1-2.1-4.969h16.571v-2.3q0-6.047-2.825-9.352t-8-3.3A10.877,10.877,0,0,0,325.5,41.5a11.143,11.143,0,0,0-4.113,4.652,15.211,15.211,0,0,0-1.465,6.785v0.7a12.371,12.371,0,0,0,3.363,9.082,11.783,11.783,0,0,0,8.778,3.41A12.737,12.737,0,0,0,337.769,64.88Zm-2.684-19.008a6.927,6.927,0,0,1,1.524,4.324v0.422H325.757a8.507,8.507,0,0,1,1.84-4.57A5.295,5.295,0,0,1,335.085,45.873Z" transform="translate(-63)"/>
    <path class="cls-3" d="M210,25h1V75h-1V25Z" transform="translate(-63)"/>
  </g>
</svg>
